<svg width="128" height="128" viewBox="0 0 128 128" xmlns="http://www.w3.org/2000/svg">
  <defs>
    <linearGradient id="bg" x1="0" y1="0" x2="1" y2="1">
      <stop offset="0%" stop-color="#1e293b"/>
      <stop offset="100%" stop-color="#0f172a"/>
    </linearGradient>
    <linearGradient id="flow" x1="0" y1="0" x2="0" y2="1">
      <stop offset="0%" stop-color="#3b82f6"/>
      <stop offset="40%" stop-color="#8b5cf6"/>
      <stop offset="70%" stop-color="#f59e0b"/>
      <stop offset="100%" stop-color="#10b981"/>
    </linearGradient>
  </defs>
  <rect width="128" height="128" rx="24" fill="url(#bg)"/>
  <!-- Nodes -->
  <circle cx="30" cy="35" r="10" fill="#3b82f6" opacity="0.9"/>
  <circle cx="30" cy="93" r="10" fill="#10b981" opacity="0.9"/>
  <circle cx="64" cy="64" r="14" fill="url(#flow)" opacity="0.95"/>
  <circle cx="98" cy="42" r="10" fill="#f59e0b" opacity="0.9"/>
  <circle cx="98" cy="86" r="10" fill="#8b5cf6" opacity="0.9"/>
  <!-- Edges -->
  <path d="M40 38 Q52 50 52 60" stroke="#3b82f6" stroke-width="2.5" fill="none" opacity="0.7"/>
  <path d="M40 90 Q52 78 52 68" stroke="#10b981" stroke-width="2.5" fill="none" opacity="0.7"/>
  <path d="M76 60 Q86 52 88 45" stroke="#f59e0b" stroke-width="2.5" fill="none" opacity="0.7"/>
  <path d="M76 68 Q86 76 88 83" stroke="#8b5cf6" stroke-width="2.5" fill="none" opacity="0.7"/>
  <!-- Flowing dots -->
  <circle cx="46" cy="48" r="3" fill="#3b82f6" opacity="0.8"/>
  <circle cx="46" cy="80" r="3" fill="#10b981" opacity="0.8"/>
  <circle cx="82" cy="52" r="3" fill="#f59e0b" opacity="0.8"/>
  <circle cx="82" cy="76" r="3" fill="#8b5cf6" opacity="0.8"/>
</svg>